<svg id="Layer_1" data-name="Layer 1" xmlns="http://www.w3.org/2000/svg" viewBox="0 0 512.12 409.6"><defs><style>.cls-1{fill:#fff;}</style></defs><g id="_032---Play-Stream" data-name="032---Play-Stream"><path id="Shape" class="cls-1" d="M307.2,51.2a204.13,204.13,0,0,0-137.85,53.43,8.54,8.54,0,0,0,11.51,12.61,187.73,187.73,0,1,1,0,277.52,8.54,8.54,0,0,0-11.51,12.61A204.8,204.8,0,1,0,307.2,51.2Z" transform="translate(0 -51.2)"/><path id="Shape-2" data-name="Shape" class="cls-1" d="M247.41,384c7.3,0-5,6.59,180-113.77a17,17,0,0,0,0-28.45l-170.79-111A17,17,0,0,0,230.4,145V367a17,17,0,0,0,17,17Zm.06-238.87L418.18,255.91,247.47,367Z" transform="translate(0 -51.2)"/><path id="Shape-3" data-name="Shape" class="cls-1" d="M8.53,307.2H109.18a187,187,0,0,0,20.72,51.2H76.8a8.54,8.54,0,0,0,0,17.07H179.2a8.54,8.54,0,0,0,0-17.07H150.07a169,169,0,0,1-23.25-51.2H153.6a8.54,8.54,0,0,0,0-17.07H122.75A185.57,185.57,0,0,1,150.06,153.6H179.2a8.54,8.54,0,0,0,0-17.07H76.8a8.54,8.54,0,0,0,0,17.07h53.1a204.09,204.09,0,0,0-24.52,136.53H8.53a8.54,8.54,0,0,0,0,17.07Z" transform="translate(0 -51.2)"/><path id="Shape-4" data-name="Shape" class="cls-1" d="M8.53,221.87H76.8a8.54,8.54,0,0,0,0-17.07H8.53a8.54,8.54,0,0,0,0,17.07Z" transform="translate(0 -51.2)"/></g></svg>